<svg width="258" height="300" viewBox="0 0 258 300" fill="none" xmlns="http://www.w3.org/2000/svg">
<path d="M21.3359 275.315L128.836 25.3147L236.336 275.315L128.836 211.464L21.3359 275.315Z" fill="#0E6B30"/>
<path d="M21.3359 275.315L128.836 25.3147L236.336 275.315L128.836 211.464L21.3359 275.315Z" fill="#0E6B30"/>
<path d="M21.3359 275.315L128.836 25.3147L236.336 275.315L128.836 211.464L21.3359 275.315Z" fill="#0E6B30"/>
<path d="M21.3359 275.315L128.836 25.3147L236.336 275.315L128.836 211.464L21.3359 275.315Z" fill="#0E6B30"/>
<path d="M21.3359 275.315L128.836 25.3147L236.336 275.315L128.836 211.464L21.3359 275.315Z" stroke="#86EFAC" stroke-width="20"/>
<path d="M21.3359 275.315L128.836 25.3147L236.336 275.315L128.836 211.464L21.3359 275.315Z" stroke="#86EFAC" stroke-width="20"/>
<path d="M21.3359 275.315L128.836 25.3147L236.336 275.315L128.836 211.464L21.3359 275.315Z" stroke="#86EFAC" stroke-width="20"/>
<path d="M21.3359 275.315L128.836 25.3147L236.336 275.315L128.836 211.464L21.3359 275.315Z" stroke="#86EFAC" stroke-width="20"/>
</svg>
